#!OML:ASF F:\VICON\USERDATA\INSTALL\rory3\rory3.ASF
:FULLY-SPECIFIED
:DEGREES
1
root -0.307087 17.6356 -28.2214 2.36076 1.44212 -4.54601
lowerback 15.4094 -0.182495 1.65268
upperback 1.54579 0.0318172 -0.110122
thorax -6.9977 -0.0335751 -1.06068
lowerneck -3.24163 -0.676991 -1.34632
upperneck -9.28199 -0.818331 1.08102
head -2.3551 -0.388697 0.578143
rclavicle 1.74931e-014 -4.77083e-015
rhumerus -42.2757 19.3184 -90.6312
rradius 79.2191
rwrist 2.46902
rhand -35.8906 32.487
rfingers 7.12502
rthumb -9.00425 2.69918
lclavicle 1.74931e-014 -4.77083e-015
lhumerus -46.581 -10.5126 91.072
lradius 108.082
lwrist 30.7395
lhand -39.5085 13.512
lfingers 7.12502
lthumb -12.4939 43.1185
rfemur 4.30283 -1.72433 25.7796
rtibia 82.7602
rfoot 27.83 -8.73877
rtoes 20.2614
lfemur -27.49 -2.09007 -20.1015
ltibia 38.398
lfoot -7.19848 -5.78026
ltoes 5.97973
2
root -0.303728 17.5624 -27.7253 2.02549 1.77071 -4.33872
lowerback 16.0608 -0.380636 1.35189
upperback 1.68665 -0.267024 -0.0539964
thorax -7.21419 -0.169571 -0.765959
lowerneck -2.88855 -0.493739 -1.55908
upperneck -9.88628 -0.567977 1.15901
head -2.623 -0.258251 0.642519
rclavicle -7.65321e-015 -2.38542e-015
rhumerus -42.619 18.2084 -90.2387
rradius 76.8375
rwrist 5.33346
rhand -37.643 32.4997
rfingers 7.12502
rthumb -10.695 2.7919
lclavicle -7.65321e-015 -2.38542e-015
lhumerus -43.8177 -11.0502 91.3641
lradius 108.431
lwrist 30.2025
lhand -38.9758 12.3082
lfingers 7.12502
lthumb -11.9803 41.9454
rfemur 1.76685 -3.0026 24.5235
rtibia 87.0878
rfoot 27.0955 -9.32294
rtoes 22.2194
lfemur -26.5572 -2.78834 -20.4876
ltibia 40.7855
lfoot -10.1476 -3.85256
ltoes 0.48001
3
root -0.294208 17.4728 -27.2384 1.62853 1.94279 -4.06517
lowerback 16.9292 -0.51999 1.14183
upperback 1.81465 -0.483798 -0.143209
thorax -7.55951 -0.270454 -0.690263
lowerneck -2.59928 -0.313935 -1.56078
upperneck -10.5834 -0.320817 1.24057
head -2.91503 -0.136576 0.671345
rclavicle -1.54058e-014 -3.97569e-015
rhumerus -42.9367 16.607 -89.7942
rradius 74.9122
rwrist 7.29535
rhand -38.4744 33.0964
rfingers 7.12502
rthumb -11.4968 3.43167
lclavicle -1.54058e-014 -3.97569e-015
lhumerus -40.8446 -11.9999 91.445
lradius 108.671
lwrist 29.7854
lhand -38.5919 11.658
lfingers 7.12502
lthumb -11.6101 41.3163
rfemur -0.94671 -4.033 23.2605
rtibia 91.2781
rfoot 26.5333 -9.15277
rtoes 23.1538
lfemur -25.0499 -3.27418 -20.9658
ltibia 42.1017
lfoot -12.067 -2.99804
ltoes -2.17676
4
root -0.295148 17.4133 -26.748 1.48229 2.04926 -2.94783
lowerback 17.6241 -0.570267 -0.135755
upperback 1.62328 -0.808392 -0.368161
thorax -8.14235 -0.390032 -0.123022
lowerneck -1.15276 0.00116669 -1.94602
upperneck -11.5008 0.115879 1.62605
head -3.51091 0.0804647 0.866984
rclavicle 1.19271e-015 7.15625e-015
rhumerus -43.9717 15.0429 -89.3868
rradius 73.6765
rwrist 7.96463
rhand -38.7266 33.9069
rfingers 7.12502
rthumb -11.7401 4.25588
lclavicle 1.19271e-015 7.15625e-015
lhumerus -38.4575 -12.7962 91.5634
lradius 108.963
lwrist 29.1819
lhand -38.963 11.625
lfingers 7.12502
lthumb -11.968 41.2629
rfemur -3.96253 -4.9618 21.0976
rtibia 95.1849
rfoot 25.6295 -8.15798
rtoes 22.8543
lfemur -23.5911 -3.65692 -22.3332
ltibia 43.0473
lfoot -13.7243 -2.84737
ltoes -3.88833
5
root -0.308864 17.3487 -26.2763 1.60242 2.00367 -1.27865
lowerback 17.8676 -0.505643 -2.09838
upperback 1.63885 -1.14082 -0.706442
thorax -8.22956 -0.48714 0.71162
lowerneck -0.428186 0.376187 -2.44057
upperneck -12.1785 0.642684 2.04533
head -3.90802 0.345654 1.08511
rclavicle -3.77691e-015 1.11319e-014
rhumerus -44.5889 13.6151 -88.8398
rradius 72.668
rwrist 7.67915
rhand -38.2363 33.8318
rfingers 7.12502
rthumb -11.2671 4.15444
lclavicle -3.77691e-015 1.11319e-014
lhumerus -35.3186 -13.4459 91.2902
lradius 109.093
lwrist 28.5665
lhand -38.0592 11.7274
lfingers 7.12502
lthumb -11.0964 41.4141
rfemur -7.45875 -5.73975 18.3785
rtibia 98.9207
rfoot 23.9348 -6.73849
rtoes 20.6487
lfemur -22.2164 -3.81076 -24.2807
ltibia 43.6083
lfoot -15.2872 -2.13367
ltoes -6.68134
